<svg width="1024" height="1024" viewBox="0 0 1024 1024" fill="none" xmlns="http://www.w3.org/2000/svg">
<g clip-path="url(#clip0_603_9)">
<rect x="51" y="51" width="921.6" height="921.6" rx="270" fill="url(#paint0_linear_603_9)"/>
<path d="M75.72 132.744V104.1H93.266V109.742H98.226V104.1H110.192V109.742H115.772V132.744H109.572V110.3H98.846V132.744H92.646V110.3H81.982V132.744H75.72ZM128.906 132.744V127.164H123.264V109.742H128.906V104.1H146.39V109.742H152.094V127.164H146.39V132.744H128.906ZM129.526 126.544H145.77V110.3H129.526V126.544ZM170.876 132.744V127.164H165.234V115.88H159.592V104.1H165.854V115.26H171.434V126.544H176.518V115.26H182.098V104.1H188.422V115.88H182.718V127.164H177.138V132.744H170.876ZM215.229 132.744V127.164H209.587V109.742H215.229V104.1H232.713V109.742H238.417V115.88H232.093V110.3H215.849V115.26H227.133V121.522H215.849V126.544H232.093V120.84H238.417V127.102H232.713V132.744H215.229ZM252.177 132.744V127.164H246.535V109.742H252.177V104.1H269.661V109.742H275.365V126.544H281.007V132.744H274.745V127.164H269.661V132.744H252.177ZM252.797 126.544H269.041V110.3H252.797V126.544ZM286.631 132.744V126.544H292.273V120.902H297.853V115.88H292.273V110.3H286.631V104.1H292.893V109.742H298.473V115.26H303.557V109.742H309.137V104.1H315.461V110.3H309.757V115.88H304.177V120.902H309.757V126.544H315.461V132.744H309.137V127.164H303.557V121.522H298.473V127.164H292.893V132.744H286.631ZM326.37 137.58V134.108H329.222V132H323.58V125.738H329.842V131.38H332.632V134.728H329.842V137.58H326.37ZM359.403 132.744V127.164H353.761V98.52H359.403V92.878H376.887V98.52H382.591V127.164H376.887V132.744H359.403ZM360.023 126.544H376.267V99.14H360.023V126.544ZM390.709 132.744V126.544H396.351V120.902H401.931V115.88H396.351V110.3H390.709V104.1H396.971V109.742H402.551V115.26H407.635V109.742H413.215V104.1H419.539V110.3H413.835V115.88H408.255V120.902H413.835V126.544H419.539V132.744H413.215V127.164H407.635V121.522H402.551V127.164H396.971V132.744H390.709ZM450.163 132.744V121.522H427.657V109.742H433.299V104.1H438.879V98.52H444.583V92.878H456.487V132.744H450.163ZM433.919 115.26H450.163V99.14H445.203V104.72H439.499V110.3H433.919V115.26ZM464.605 132.744V104.1H470.247V98.52H475.827V92.878H482.151V98.52H487.731V104.1H493.435V132.744H487.111V121.522H470.867V132.744H464.605ZM470.867 115.26H487.111V104.72H481.531V99.14H476.447V104.72H470.867V115.26ZM524.059 132.744V99.14H507.815V104.72H501.553V98.52H507.195V92.878H524.679V98.52H530.383V132.744H524.059ZM544.144 132.744V127.164H538.502V98.52H544.144V92.878H561.628V98.52H567.332V110.3H561.628V115.26H567.332V127.164H561.628V132.744H544.144ZM544.764 126.544H561.008V115.88H549.724V109.742H561.008V99.14H544.764V126.544ZM581.092 132.744V127.164H575.45V115.26H581.092V109.742H597.956V99.14H581.712V104.72H575.45V98.52H581.092V92.878H598.576V98.52H604.28V110.3H598.576V115.88H581.712V126.544H597.956V120.902H604.28V127.164H598.576V132.744H581.092ZM618.04 132.744V127.164H612.398V98.52H618.04V92.878H635.524V98.52H641.228V110.3H634.904V99.14H618.66V126.544H634.904V115.26H641.228V127.164H635.524V132.744H618.04ZM654.988 132.744V127.164H649.346V115.26H654.988V110.3H649.346V98.52H654.988V92.878H672.472V98.52H678.176V110.3H672.472V115.26H678.176V127.164H672.472V132.744H654.988ZM655.608 126.544H671.852V115.88H655.608V126.544ZM655.608 109.742H671.852V99.14H655.608V109.742ZM686.294 132.744V92.878H703.84V98.52H709.42V104.1H715.124V121.522H709.42V127.164H703.84V132.744H686.294ZM692.556 126.544H703.22V120.902H708.8V104.72H703.22V99.14H692.556V126.544ZM75.72 217.656V183.742H81.362V178.1H98.846V183.742H104.55V201.164H98.846V206.744H81.982V217.656H75.72ZM81.982 200.544H98.226V184.3H81.982V200.544ZM118.31 206.744V201.164H112.668V178.1H118.93V200.544H135.174V178.1H141.498V201.164H135.794V206.744H118.31ZM149.011 206.744V200.544H171.517V195.522H154.653V189.88H149.011V183.742H154.653V178.1H177.841V184.3H155.273V189.26H172.137V194.902H177.841V201.164H172.137V206.744H149.011ZM185.959 206.744V166.878H192.221V183.742H197.181V178.1H209.085V183.742H214.789V206.744H208.465V184.3H197.801V189.88H192.221V206.744H185.959ZM241.581 206.744V201.164H235.939V183.742H241.581V178.1H259.065V183.742H264.769V189.88H258.445V184.3H242.201V189.26H253.485V195.522H242.201V200.544H258.445V194.84H264.769V201.102H259.065V206.744H241.581ZM278.529 206.744V201.164H272.887V166.878H279.149V178.1H296.013V183.742H301.717V201.164H296.013V206.744H278.529ZM279.149 200.544H295.393V184.3H279.149V200.544ZM309.835 217.656V183.742H315.477V178.1H332.961V183.742H338.665V201.164H332.961V206.744H316.097V217.656H309.835ZM316.097 200.544H332.341V184.3H316.097V200.544ZM75.72 280.744V252.1H93.266V257.742H98.226V252.1H110.192V257.742H115.772V280.744H109.572V258.3H98.846V280.744H92.646V258.3H81.982V280.744H75.72ZM128.906 280.744V275.164H123.264V257.742H128.906V252.1H146.39V257.742H152.094V275.164H146.39V280.744H128.906ZM129.526 274.544H145.77V258.3H129.526V274.544ZM170.876 280.744V275.164H165.234V263.88H159.592V252.1H165.854V263.26H171.434V274.544H176.518V263.26H182.098V252.1H188.422V263.88H182.718V275.164H177.138V280.744H170.876ZM215.229 280.744V275.164H209.587V257.742H215.229V252.1H232.713V257.742H238.417V263.88H232.093V258.3H215.849V263.26H227.133V269.522H215.849V274.544H232.093V268.84H238.417V275.102H232.713V280.744H215.229ZM252.177 280.744V275.164H246.535V240.878H252.797V252.1H269.661V257.742H275.365V275.164H269.661V280.744H252.177ZM252.797 274.544H269.041V258.3H252.797V274.544ZM283.483 291.656V257.742H289.125V252.1H306.609V257.742H312.313V275.164H306.609V280.744H289.745V291.656H283.483ZM289.745 274.544H305.989V258.3H289.745V274.544ZM323.221 285.58V282.108H326.073V280H320.431V273.738H326.693V279.38H329.483V282.728H326.693V285.58H323.221ZM356.254 280.744V275.164H350.612V257.742H356.254V252.1H373.738V257.742H379.442V263.88H373.118V258.3H356.874V263.26H368.158V269.522H356.874V274.544H373.118V268.84H379.442V275.102H373.738V280.744H356.254ZM387.561 280.744V274.544H410.067V269.522H393.203V263.88H387.561V257.742H393.203V252.1H416.391V258.3H393.823V263.26H410.687V268.902H416.391V275.164H410.687V280.744H387.561ZM424.509 291.656V257.742H430.151V252.1H447.635V257.742H453.339V275.164H447.635V280.744H430.771V291.656H424.509ZM430.771 274.544H447.015V258.3H430.771V274.544ZM75.72 354.744V348.544H98.226V343.522H81.362V337.88H75.72V331.742H81.362V326.1H104.55V332.3H81.982V337.26H98.846V342.902H104.55V349.164H98.846V354.744H75.72ZM118.31 354.744V349.164H112.668V326.1H118.93V348.544H135.174V326.1H141.498V349.164H135.794V354.744H118.31ZM155.258 354.744V349.164H149.616V314.878H155.878V326.1H172.742V331.742H178.446V349.164H172.742V354.744H155.258ZM155.878 348.544H172.122V332.3H155.878V348.544ZM205.238 354.744V349.164H199.596V331.742H205.238V326.1H222.722V331.742H228.426V337.88H222.102V332.3H205.858V337.26H217.142V343.522H205.858V348.544H222.102V342.84H228.426V349.102H222.722V354.744H205.238ZM236.545 354.744V348.544H259.051V343.522H242.187V337.88H236.545V331.742H242.187V326.1H265.375V332.3H242.807V337.26H259.671V342.902H265.375V349.164H259.671V354.744H236.545ZM273.493 365.656V331.742H279.135V326.1H296.619V331.742H302.323V349.164H296.619V354.744H279.755V365.656H273.493ZM279.755 348.544H295.999V332.3H279.755V348.544ZM313.231 359.58V356.108H316.083V354H310.441V347.738H316.703V353.38H319.493V356.728H316.703V359.58H313.231ZM346.264 354.744V349.164H340.622V320.52H346.264V314.878H363.748V320.52H369.452V349.164H363.748V354.744H346.264ZM346.884 348.544H363.128V321.14H346.884V348.544ZM377.57 354.744V348.544H383.212V342.902H388.792V337.88H383.212V332.3H377.57V326.1H383.832V331.742H389.412V337.26H394.496V331.742H400.076V326.1H406.4V332.3H400.696V337.88H395.116V342.902H400.696V348.544H406.4V354.744H400.076V349.164H394.496V343.522H389.412V349.164H383.832V354.744H377.57ZM420.161 354.744V349.164H414.519V337.26H420.161V331.742H437.025V321.14H420.781V326.72H414.519V320.52H420.161V314.878H437.645V320.52H443.349V332.3H437.645V337.88H420.781V348.544H437.025V342.902H443.349V349.164H437.645V354.744H420.161ZM457.109 354.744V349.164H451.467V320.52H457.109V314.878H474.593V320.52H480.297V349.164H474.593V354.744H457.109ZM457.729 348.544H473.973V321.14H457.729V348.544ZM75.72 428.744V388.878H81.982V428.744H75.72ZM94.5152 428.744V423.164H88.8732V405.742H94.5152V400.1H111.999V405.742H117.703V411.88H111.379V406.3H95.1352V411.26H106.419V417.522H95.1352V422.544H111.379V416.84H117.703V423.102H111.999V428.744H94.5152ZM131.463 428.744V423.164H125.821V405.742H131.463V400.1H148.947V405.742H154.651V422.544H160.293V428.744H154.031V423.164H148.947V428.744H131.463ZM132.083 422.544H148.327V406.3H132.083V422.544ZM187.074 428.744V423.164H181.432V405.742H187.074V400.1H204.558V405.742H210.262V411.88H203.938V406.3H187.694V411.26H198.978V417.522H187.694V422.544H203.938V416.84H210.262V423.102H204.558V428.744H187.074ZM224.023 428.744V423.164H218.381V405.742H224.023V400.1H240.949V388.878H247.211V423.164H241.507V428.744H224.023ZM224.643 422.544H240.887V406.3H224.643V422.544ZM255.329 428.744V400.1H261.591V428.744H255.329ZM255.329 395.14V388.878H261.591V395.14H255.329ZM272.483 433.58V430.108H275.335V428H269.693V421.738H275.955V427.38H278.745V430.728H275.955V433.58H272.483ZM305.516 431.782V426.14H299.874V391.916H305.516V386.336H317.42V392.536H306.136V425.52H317.42V431.782H305.516ZM329.326 428.744V423.164H323.684V405.742H329.326V400.1H346.81V405.742H352.514V411.88H346.19V406.3H329.946V411.26H341.23V417.522H329.946V422.544H346.19V416.84H352.514V423.102H346.81V428.744H329.326ZM366.274 428.744V423.164H360.632V388.878H366.894V400.1H383.758V405.742H389.462V423.164H383.758V428.744H366.274ZM366.894 422.544H383.138V406.3H366.894V422.544ZM397.58 439.656V405.742H403.222V400.1H420.706V405.742H426.41V423.164H420.706V428.744H403.842V439.656H397.58ZM403.842 422.544H420.086V406.3H403.842V422.544ZM432.234 415.6V409.338H449.718V415.6H432.234ZM461.437 428.744V423.164H455.795V394.52H461.437V388.878H478.921V394.52H484.625V423.164H478.921V428.744H461.437ZM462.057 422.544H478.301V395.14H462.057V422.544ZM492.743 428.744V422.544H498.385V416.902H503.965V411.88H498.385V406.3H492.743V400.1H499.005V405.742H504.585V411.26H509.669V405.742H515.249V400.1H521.573V406.3H515.869V411.88H510.289V416.902H515.869V422.544H521.573V428.744H515.249V423.164H509.669V417.522H504.585V423.164H499.005V428.744H492.743ZM533.466 428.744V395.14H528.506V400.72H522.244V394.52H527.886V388.878H534.086V394.52H539.79V428.744H533.466ZM553.572 428.744V423.164H547.93V394.52H553.572V388.878H571.056V394.52H576.76V423.164H571.056V428.744H553.572ZM554.192 422.544H570.436V395.14H554.192V422.544ZM583.018 431.782V425.52H594.302V392.536H583.018V386.336H594.922V391.916H600.564V426.14H594.922V431.782H583.018ZM75.72 502.744V496.544H81.362V490.902H86.942V485.88H81.362V480.3H75.72V474.1H81.982V479.742H87.562V485.26H92.646V479.742H98.226V474.1H104.55V480.3H98.846V485.88H93.266V490.902H98.846V496.544H104.55V502.744H98.226V497.164H92.646V491.522H87.562V497.164H81.982V502.744H75.72ZM115.222 502.744V497.164H109.58V479.742H115.222V474.1H132.706V479.742H138.41V497.164H132.706V502.744H115.222ZM115.842 496.544H132.086V480.3H115.842V496.544ZM146.528 502.744V479.742H152.17V474.1H169.654V479.742H175.358V485.88H169.034V480.3H152.79V502.744H146.528ZM202.151 502.744V497.164H196.509V479.742H202.151V474.1H219.635V479.742H225.339V485.88H219.015V480.3H202.771V485.26H214.055V491.522H202.771V496.544H219.015V490.84H225.339V497.102H219.635V502.744H202.151ZM239.099 502.744V497.164H233.457V479.742H239.099V474.1H256.583V479.742H262.287V485.88H255.963V480.3H239.719V496.544H255.963V490.902H262.287V497.164H256.583V502.744H239.099ZM268.528 502.744V496.544H274.17V490.902H279.75V485.88H274.17V480.3H268.528V474.1H274.79V479.742H280.37V485.26H285.454V479.742H291.034V474.1H297.358V480.3H291.654V485.88H286.074V490.902H291.654V496.544H297.358V502.744H291.034V497.164H285.454V491.522H280.37V497.164H274.79V502.744H268.528ZM308.266 507.58V504.108H311.118V502H305.476V495.738H311.738V501.38H314.528V504.728H311.738V507.58H308.266ZM341.299 502.744V497.164H335.657V479.742H341.299V474.1H358.783V479.742H364.487V485.88H358.163V480.3H341.919V485.26H353.203V491.522H341.919V496.544H358.163V490.84H364.487V497.102H358.783V502.744H341.299ZM378.248 502.744V497.164H372.606V479.742H378.248V474.1H395.732V479.742H401.436V485.88H395.112V480.3H378.868V496.544H395.112V490.902H401.436V497.164H395.732V502.744H378.248ZM407.677 502.744V496.544H413.319V490.902H418.899V485.88H413.319V480.3H407.677V474.1H413.939V479.742H419.519V485.26H424.603V479.742H430.183V474.1H436.507V480.3H430.803V485.88H425.223V490.902H430.803V496.544H436.507V502.744H430.183V497.164H424.603V491.522H419.519V497.164H413.939V502.744H407.677ZM75.72 576.744V548.1H93.266V553.742H98.226V548.1H110.192V553.742H115.772V576.744H109.572V554.3H98.846V576.744H92.646V554.3H81.982V576.744H75.72ZM128.906 576.744V571.164H123.264V553.742H128.906V548.1H146.39V553.742H152.094V571.164H146.39V576.744H128.906ZM129.526 570.544H145.77V554.3H129.526V570.544ZM170.876 576.744V571.164H165.234V559.88H159.592V548.1H165.854V559.26H171.434V570.544H176.518V559.26H182.098V548.1H188.422V559.88H182.718V571.164H177.138V576.744H170.876ZM215.229 576.744V571.164H209.587V553.742H215.229V548.1H232.713V553.742H238.417V559.88H232.093V554.3H215.849V559.26H227.133V565.522H215.849V570.544H232.093V564.84H238.417V571.102H232.713V576.744H215.229ZM252.177 576.744V571.164H246.535V553.742H252.177V548.1H269.103V536.878H275.365V571.164H269.661V576.744H252.177ZM252.797 570.544H269.041V554.3H252.797V570.544ZM282.272 576.744V570.544H287.914V564.902H293.494V559.88H287.914V554.3H282.272V548.1H288.534V553.742H294.114V559.26H299.198V553.742H304.778V548.1H311.102V554.3H305.398V559.88H299.818V564.902H305.398V570.544H311.102V576.744H304.778V571.164H299.198V565.522H294.114V571.164H288.534V576.744H282.272ZM322.01 581.58V578.108H324.862V576H319.22V569.738H325.482V575.38H328.272V578.728H325.482V581.58H322.01ZM355.044 576.744V571.164H349.402V542.52H355.044V536.878H372.528V542.52H378.232V571.164H372.528V576.744H355.044ZM355.664 570.544H371.908V543.14H355.664V570.544ZM386.35 576.744V570.544H391.992V564.902H397.572V559.88H391.992V554.3H386.35V548.1H392.612V553.742H398.192V559.26H403.276V553.742H408.856V548.1H415.18V554.3H409.476V559.88H403.896V564.902H409.476V570.544H415.18V576.744H408.856V571.164H403.276V565.522H398.192V571.164H392.612V576.744H386.35ZM423.298 576.744V536.878H446.424V542.52H452.128V548.72H445.804V543.14H429.56V553.742H440.844V559.88H429.56V576.744H423.298ZM459.035 576.744V536.878H482.161V542.52H487.865V548.72H481.541V543.14H465.297V553.742H476.581V559.88H465.297V576.744H459.035ZM500.414 576.744V571.164H494.772V542.52H500.414V536.878H517.898V542.52H523.602V571.164H517.898V576.744H500.414ZM501.034 570.544H517.278V543.14H501.034V570.544ZM537.362 576.744V571.164H531.72V542.52H537.362V536.878H554.846V542.52H560.55V571.164H554.846V576.744H537.362ZM537.982 570.544H554.226V543.14H537.982V570.544ZM568.668 576.744V548.1H574.31V542.52H579.89V536.878H586.214V542.52H591.794V548.1H597.498V576.744H591.174V565.522H574.93V576.744H568.668ZM574.93 559.26H591.174V548.72H585.594V543.14H580.51V548.72H574.93V559.26ZM605.617 576.744V548.1H611.259V542.52H616.839V536.878H623.163V542.52H628.743V548.1H634.447V576.744H628.123V565.522H611.879V576.744H605.617ZM611.879 559.26H628.123V548.72H622.543V543.14H617.459V548.72H611.879V559.26ZM648.207 576.744V571.164H642.565V564.902H648.827V570.544H665.071V565.522H653.787V559.88H648.207V554.3H642.565V542.52H648.207V536.878H665.691V542.52H671.395V554.3H665.071V543.14H648.827V553.742H654.407V559.26H665.691V564.902H671.395V571.164H665.691V576.744H648.207ZM685.155 576.744V571.164H679.513V564.902H685.775V570.544H702.019V565.522H690.735V559.88H685.155V554.3H679.513V542.52H685.155V536.878H702.639V542.52H708.343V554.3H702.019V543.14H685.775V553.742H691.355V559.26H702.639V564.902H708.343V571.164H702.639V576.744H685.155ZM81.362 650.744V645.164H75.72V627.742H81.362V622.1H98.846V627.742H104.55V633.88H98.226V628.3H81.982V644.544H98.226V638.902H104.55V645.164H98.846V650.744H81.362ZM112.668 650.744V622.1H130.214V627.742H135.174V622.1H147.14V627.742H152.72V650.744H146.52V628.3H135.794V650.744H129.594V628.3H118.93V650.744H112.668ZM160.817 661.656V627.742H166.459V622.1H183.943V627.742H189.647V645.164H183.943V650.744H167.079V661.656H160.817ZM167.079 644.544H183.323V628.3H167.079V644.544ZM216.44 650.744V645.164H210.798V627.742H216.44V622.1H233.924V627.742H239.628V633.88H233.304V628.3H217.06V633.26H228.344V639.522H217.06V644.544H233.304V638.84H239.628V645.102H233.924V650.744H216.44ZM253.388 650.744V645.164H247.746V627.742H253.388V622.1H270.872V627.742H276.576V644.544H282.218V650.744H275.956V645.164H270.872V650.744H253.388ZM254.008 644.544H270.252V628.3H254.008V644.544ZM287.842 650.744V644.544H293.484V638.902H299.064V633.88H293.484V628.3H287.842V622.1H294.104V627.742H299.684V633.26H304.768V627.742H310.348V622.1H316.672V628.3H310.968V633.88H305.388V638.902H310.968V644.544H316.672V650.744H310.348V645.164H304.768V639.522H299.684V645.164H294.104V650.744H287.842ZM327.58 655.58V652.108H330.432V650H324.79V643.738H331.052V649.38H333.842V652.728H331.052V655.58H327.58ZM360.614 650.744V645.164H354.972V627.742H360.614V622.1H378.098V627.742H383.802V633.88H377.478V628.3H361.234V633.26H372.518V639.522H361.234V644.544H377.478V638.84H383.802V645.102H378.098V650.744H360.614ZM397.562 650.744V645.164H391.92V627.742H397.562V622.1H414.488V610.878H420.75V645.164H415.046V650.744H397.562ZM398.182 644.544H414.426V628.3H398.182V644.544ZM427.657 650.744V644.544H433.299V638.902H438.879V633.88H433.299V628.3H427.657V622.1H433.919V627.742H439.499V633.26H444.583V627.742H450.163V622.1H456.487V628.3H450.783V633.88H445.203V638.902H450.783V644.544H456.487V650.744H450.163V645.164H444.583V639.522H439.499V645.164H433.919V650.744H427.657ZM81.362 724.806V719.164H75.72V712.902H81.982V718.544H92.646V696.1H98.908V719.164H93.266V724.806H81.362ZM107.037 724.744V696.1H130.163V701.742H135.867V724.744H129.543V702.3H113.299V724.744H107.037ZM147.75 724.744V719.164H142.108V701.742H147.75V696.1H165.234V701.742H170.938V707.88H164.614V702.3H148.37V707.26H159.654V713.522H148.37V718.544H164.614V712.84H170.938V719.102H165.234V724.744H147.75ZM192.089 724V717.738H198.351V724H192.089ZM212.095 724.744V719.164H206.453V684.878H212.715V718.544H228.959V712.902H235.283V719.164H229.579V724.744H212.095ZM243.401 724V717.738H263.365V724H243.401ZM277.091 724.744V719.164H271.449V684.878H277.711V696.1H294.575V701.742H300.279V719.164H294.575V724.744H277.091ZM277.711 718.544H293.955V702.3H277.711V718.544ZM307.186 724.744V701.742H312.828V696.1H330.312V701.742H336.016V707.88H329.692V702.3H313.448V724.744H307.186ZM347.899 724.744V719.164H342.257V701.742H347.899V696.1H365.383V701.742H371.087V718.544H376.729V724.744H370.467V719.164H365.383V724.744H347.899ZM348.519 718.544H364.763V702.3H348.519V718.544ZM382.959 724.744V696.1H406.085V701.742H411.789V724.744H405.465V702.3H389.221V724.744H382.959ZM424.338 724.744V719.164H418.696V701.742H424.338V696.1H441.822V701.742H447.526V707.88H441.202V702.3H424.958V718.544H441.202V712.902H447.526V719.164H441.822V724.744H424.338ZM454.433 724.744V684.878H460.695V701.742H465.655V696.1H477.559V701.742H483.263V724.744H476.939V702.3H466.275V707.88H460.695V724.744H454.433ZM491.382 724V717.738H511.346V724H491.382ZM541.935 724.744V691.14H525.691V696.72H519.429V690.52H525.071V684.878H542.555V690.52H548.259V724.744H541.935ZM556.377 724.744V684.878H579.503V690.52H585.207V696.72H578.883V691.14H562.639V701.742H573.923V707.88H562.639V724.744H556.377ZM598.968 724.744V719.164H593.326V712.902H599.588V718.544H615.832V707.88H598.968V701.742H615.832V691.14H599.588V696.72H593.326V690.52H598.968V684.878H616.452V690.52H622.156V702.3H616.452V707.26H622.156V719.164H616.452V724.744H598.968ZM630.274 724.744V696.1H635.916V690.52H641.496V684.878H647.82V690.52H653.4V696.1H659.104V724.744H652.78V713.522H636.536V724.744H630.274ZM636.536 707.26H652.78V696.72H647.2V691.14H642.116V696.72H636.536V707.26ZM81.362 798.744V793.164H75.72V775.742H81.362V770.1H98.846V775.742H104.55V792.544H110.192V798.744H103.93V793.164H98.846V798.744H81.362ZM81.982 792.544H98.226V776.3H81.982V792.544ZM120.853 798.744V793.164H115.211V775.742H120.853V770.1H137.779V758.878H144.041V793.164H138.337V798.744H120.853ZM121.473 792.544H137.717V776.3H121.473V792.544ZM156.59 798.744V793.164H150.948V775.742H156.59V770.1H173.516V758.878H179.778V793.164H174.074V798.744H156.59ZM157.21 792.544H173.454V776.3H157.21V792.544ZM206.571 798.744V793.164H200.929V775.742H206.571V770.1H224.055V775.742H229.759V781.88H223.435V776.3H207.191V781.26H218.475V787.522H207.191V792.544H223.435V786.84H229.759V793.102H224.055V798.744H206.571ZM243.519 798.744V793.164H237.877V775.742H243.519V770.1H261.003V775.742H266.707V792.544H272.349V798.744H266.087V793.164H261.003V798.744H243.519ZM244.139 792.544H260.383V776.3H244.139V792.544ZM277.973 798.744V792.544H283.615V786.902H289.195V781.88H283.615V776.3H277.973V770.1H284.235V775.742H289.815V781.26H294.899V775.742H300.479V770.1H306.803V776.3H301.099V781.88H295.519V786.902H301.099V792.544H306.803V798.744H300.479V793.164H294.899V787.522H289.815V793.164H284.235V798.744H277.973ZM317.711 803.58V800.108H320.563V798H314.921V791.738H321.183V797.38H323.973V800.728H321.183V803.58H317.711ZM350.745 798.744V793.164H345.103V764.52H350.745V758.878H368.229V764.52H373.933V793.164H368.229V798.744H350.745ZM351.365 792.544H367.609V765.14H351.365V792.544ZM382.051 798.744V792.544H387.693V786.902H393.273V781.88H387.693V776.3H382.051V770.1H388.313V775.742H393.893V781.26H398.977V775.742H404.557V770.1H410.881V776.3H405.177V781.88H399.597V786.902H405.177V792.544H410.881V798.744H404.557V793.164H398.977V787.522H393.893V793.164H388.313V798.744H382.051ZM422.774 798.744V765.14H417.814V770.72H411.552V764.52H417.194V758.878H423.394V764.52H429.098V798.744H422.774ZM442.88 798.744V793.164H437.238V781.26H442.88V775.742H459.744V765.14H443.5V770.72H437.238V764.52H442.88V758.878H460.364V764.52H466.068V776.3H460.364V781.88H443.5V792.544H459.744V786.902H466.068V793.164H460.364V798.744H442.88ZM479.828 798.744V793.164H474.186V786.902H480.448V792.544H496.692V781.88H479.828V775.742H496.692V765.14H480.448V770.72H474.186V764.52H479.828V758.878H497.312V764.52H503.016V776.3H497.312V781.26H503.016V793.164H497.312V798.744H479.828ZM533.64 798.744V787.522H511.134V775.742H516.776V770.1H522.356V764.52H528.06V758.878H539.964V798.744H533.64ZM517.396 781.26H533.64V765.14H528.68V770.72H522.976V776.3H517.396V781.26ZM548.082 798.744V770.1H553.724V764.52H559.304V758.878H565.628V764.52H571.208V770.1H576.912V798.744H570.588V787.522H554.344V798.744H548.082ZM554.344 781.26H570.588V770.72H565.008V765.14H559.924V770.72H554.344V781.26ZM590.673 798.744V793.164H585.031V764.52H590.673V758.878H608.157V764.52H613.861V776.3H608.157V781.26H613.861V793.164H608.157V798.744H590.673ZM591.293 792.544H607.537V781.88H596.253V775.742H607.537V765.14H591.293V792.544ZM627.621 798.744V793.164H621.979V764.52H627.621V758.878H645.105V764.52H650.809V776.3H644.485V765.14H628.241V792.544H644.485V781.26H650.809V793.164H645.105V798.744H627.621ZM658.927 798.744V758.878H676.473V764.52H682.053V770.1H687.757V787.522H682.053V793.164H676.473V798.744H658.927ZM665.189 792.544H675.853V786.902H681.433V770.72H675.853V765.14H665.189V792.544ZM75.72 872.744V866.544H98.226V861.522H81.362V855.88H75.72V849.742H81.362V844.1H104.55V850.3H81.982V855.26H98.846V860.902H104.55V867.164H98.846V872.744H75.72ZM112.668 872.744V832.878H118.93V849.742H123.89V844.1H135.794V849.742H141.498V872.744H135.174V850.3H124.51V855.88H118.93V872.744H112.668ZM149.616 872.744V832.878H155.878V872.744H149.616ZM182.655 872.744V867.164H177.013V849.742H182.655V844.1H200.139V849.742H205.843V855.88H199.519V850.3H183.275V855.26H194.559V861.522H183.275V866.544H199.519V860.84H205.843V867.102H200.139V872.744H182.655ZM219.603 872.744V867.164H213.961V849.742H219.603V844.1H237.087V849.742H242.791V866.544H248.433V872.744H242.171V867.164H237.087V872.744H219.603ZM220.223 866.544H236.467V850.3H220.223V866.544ZM254.057 872.744V866.544H259.699V860.902H265.279V855.88H259.699V850.3H254.057V844.1H260.319V849.742H265.899V855.26H270.983V849.742H276.563V844.1H282.887V850.3H277.183V855.88H271.603V860.902H277.183V866.544H282.887V872.744H276.563V867.164H270.983V861.522H265.899V867.164H260.319V872.744H254.057ZM293.795 877.58V874.108H296.647V872H291.005V865.738H297.267V871.38H300.057V874.728H297.267V877.58H293.795ZM343.693 872.744V861.522H321.187V849.742H326.829V844.1H332.409V838.52H338.113V832.878H350.017V872.744H343.693ZM327.449 855.26H343.693V839.14H338.733V844.72H333.029V850.3H327.449V855.26ZM75.72 946.744V918.1H93.266V923.742H98.226V918.1H110.192V923.742H115.772V946.744H109.572V924.3H98.846V946.744H92.646V924.3H81.982V946.744H75.72ZM128.906 946.744V941.164H123.264V923.742H128.906V918.1H146.39V923.742H152.094V941.164H146.39V946.744H128.906ZM129.526 940.544H145.77V924.3H129.526V940.544ZM170.876 946.744V941.164H165.234V929.88H159.592V918.1H165.854V929.26H171.434V940.544H176.518V929.26H182.098V918.1H188.422V929.88H182.718V941.164H177.138V946.744H170.876ZM215.229 949.782V944.14H209.587V909.916H215.229V904.336H227.133V910.536H215.849V943.52H227.133V949.782H215.229ZM239.038 946.744V941.164H233.396V923.742H239.038V918.1H256.522V923.742H262.226V929.88H255.902V924.3H239.658V929.26H250.942V935.522H239.658V940.544H255.902V934.84H262.226V941.102H256.522V946.744H239.038ZM275.986 946.744V941.164H270.344V906.878H276.606V918.1H293.47V923.742H299.174V941.164H293.47V946.744H275.986ZM276.606 940.544H292.85V924.3H276.606V940.544ZM307.292 957.656V923.742H312.934V918.1H330.418V923.742H336.122V941.164H330.418V946.744H313.554V957.656H307.292ZM313.554 940.544H329.798V924.3H313.554V940.544ZM341.947 933.6V927.338H359.431V933.6H341.947ZM371.149 946.744V941.164H365.507V912.52H371.149V906.878H388.633V912.52H394.337V941.164H388.633V946.744H371.149ZM371.769 940.544H388.013V913.14H371.769V940.544ZM402.455 946.744V940.544H408.097V934.902H413.677V929.88H408.097V924.3H402.455V918.1H408.717V923.742H414.297V929.26H419.381V923.742H424.961V918.1H431.285V924.3H425.581V929.88H420.001V934.902H425.581V940.544H431.285V946.744H424.961V941.164H419.381V935.522H414.297V941.164H408.717V946.744H402.455ZM443.834 946.744V941.164H438.192V912.52H443.834V906.878H461.318V912.52H467.022V941.164H461.318V946.744H443.834ZM444.454 940.544H460.698V913.14H444.454V940.544ZM497.646 946.744V935.522H475.14V923.742H480.782V918.1H486.362V912.52H492.066V906.878H503.97V946.744H497.646ZM481.402 929.26H497.646V913.14H492.686V918.72H486.982V924.3H481.402V929.26ZM510.229 949.782V943.52H521.513V910.536H510.229V904.336H522.133V909.916H527.775V944.14H522.133V949.782H510.229ZM538.688 951.58V948.108H541.54V946H535.898V939.738H542.16V945.38H544.95V948.728H542.16V951.58H538.688ZM571.721 946.744V941.164H566.079V923.742H571.721V918.1H589.205V923.742H594.909V929.88H588.585V924.3H572.341V929.26H583.625V935.522H572.341V940.544H588.585V934.84H594.909V941.102H589.205V946.744H571.721ZM608.67 946.744V941.164H603.028V923.742H608.67V918.1H626.154V923.742H631.858V940.544H637.5V946.744H631.238V941.164H626.154V946.744H608.67ZM609.29 940.544H625.534V924.3H609.29V940.544ZM643.124 946.744V940.544H648.766V934.902H654.346V929.88H648.766V924.3H643.124V918.1H649.386V923.742H654.966V929.26H660.05V923.742H665.63V918.1H671.954V924.3H666.25V929.88H660.67V934.902H666.25V940.544H671.954V946.744H665.63V941.164H660.05V935.522H654.966V941.164H649.386V946.744H643.124ZM81.362 1020.74V1015.16H75.72V997.742H81.362V992.1H98.846V997.742H104.55V1003.88H98.226V998.3H81.982V1014.54H98.226V1008.9H104.55V1015.16H98.846V1020.74H81.362ZM116.433 1020.74V1015.16H110.791V997.742H116.433V992.1H133.917V997.742H139.621V1014.54H145.263V1020.74H139.001V1015.16H133.917V1020.74H116.433ZM117.053 1014.54H133.297V998.3H117.053V1014.54ZM151.493 1020.74V980.878H157.755V1020.74H151.493ZM165.857 1020.74V980.878H172.119V1020.74H165.857ZM193.254 1020V1013.74H213.218V1020H193.254ZM221.301 1020.74V986.52H226.943V980.878H244.427V986.52H250.131V992.72H243.807V987.14H227.563V997.742H238.847V1003.88H227.563V1020.74H221.301ZM260.804 1020.74V1015.16H255.162V992.1H261.424V1014.54H277.668V992.1H283.992V1015.16H278.288V1020.74H260.804ZM292.11 1020.74V992.1H315.236V997.742H320.94V1020.74H314.616V998.3H298.372V1020.74H292.11ZM333.489 1020.74V1015.16H327.847V997.742H333.489V992.1H350.973V997.742H356.677V1003.88H350.353V998.3H334.109V1014.54H350.353V1008.9H356.677V1015.16H350.973V1020.74H333.489ZM364.795 1020V1013.74H384.759V1020H364.795ZM392.843 1020.74V997.742H398.485V992.1H415.969V997.742H421.673V1003.88H415.349V998.3H399.105V1020.74H392.843ZM433.556 1020.74V1015.16H427.914V997.742H433.556V992.1H451.04V997.742H456.744V1014.54H462.386V1020.74H456.124V1015.16H451.04V1020.74H433.556ZM434.176 1014.54H450.42V998.3H434.176V1014.54ZM468.616 1020.74V992.1H491.742V997.742H497.446V1020.74H491.122V998.3H474.878V1020.74H468.616ZM509.995 1020.74V1015.16H504.353V997.742H509.995V992.1H526.921V980.878H533.183V1015.16H527.479V1020.74H509.995ZM510.615 1014.54H526.859V998.3H510.615V1014.54ZM545.732 1020.74V1015.16H540.09V997.742H545.732V992.1H563.216V997.742H568.92V1015.16H563.216V1020.74H545.732ZM546.352 1014.54H562.596V998.3H546.352V1014.54ZM577.038 1020.74V992.1H594.584V997.742H599.544V992.1H611.51V997.742H617.09V1020.74H610.89V998.3H600.164V1020.74H593.964V998.3H583.3V1020.74H577.038ZM625.188 1020V1013.74H645.152V1020H625.188ZM658.877 1020.74V1015.16H653.235V986.52H658.877V980.878H676.361V986.52H682.065V1015.16H676.361V1020.74H658.877ZM659.497 1014.54H675.741V987.14H659.497V1014.54ZM690.184 1020.74V1014.54H695.826V1008.9H701.406V1003.88H695.826V998.3H690.184V992.1H696.446V997.742H702.026V1003.26H707.11V997.742H712.69V992.1H719.014V998.3H713.31V1003.88H707.73V1008.9H713.31V1014.54H719.014V1020.74H712.69V1015.16H707.11V1009.52H702.026V1015.16H696.446V1020.74H690.184ZM732.774 1020.74V1015.16H727.132V1008.9H733.394V1014.54H749.638V1003.88H732.774V998.3H727.132V986.52H732.774V980.878H750.258V986.52H755.962V1015.16H750.258V1020.74H732.774ZM733.394 997.742H749.638V987.14H733.394V997.742ZM769.722 1020.74V1015.16H764.08V986.52H769.722V980.878H787.206V986.52H792.91V992.72H786.586V987.14H770.342V997.742H781.626V1003.88H770.342V1014.54H786.586V1008.9H792.91V1015.16H787.206V1020.74H769.722ZM806.67 1020.74V1015.16H801.028V1003.26H806.67V997.742H823.534V987.14H807.29V992.72H801.028V986.52H806.67V980.878H824.154V986.52H829.858V998.3H824.154V1003.88H807.29V1014.54H823.534V1008.9H829.858V1015.16H824.154V1020.74H806.67ZM843.618 1020.74V1015.16H837.976V986.52H843.618V980.878H861.102V986.52H866.806V998.3H861.102V1003.26H866.806V1015.16H861.102V1020.74H843.618ZM844.238 1014.54H860.482V1003.88H849.198V997.742H860.482V987.14H844.238V1014.54ZM86.942 1094.74V1089.16H81.362V1072.3H75.72V1066.1H81.362V1054.88H87.562V1066.1H104.55V1072.3H87.562V1088.54H103.93V1082.9H110.192V1089.16H104.55V1094.74H86.942ZM122.064 1094.74V1089.16H116.422V1071.74H122.064V1066.1H139.548V1071.74H145.252V1077.88H138.928V1072.3H122.684V1077.26H133.968V1083.52H122.684V1088.54H138.928V1082.84H145.252V1089.1H139.548V1094.74H122.064ZM153.37 1094.74V1088.54H175.876V1083.52H159.012V1077.88H153.37V1071.74H159.012V1066.1H182.2V1072.3H159.632V1077.26H176.496V1082.9H182.2V1089.16H176.496V1094.74H153.37ZM201.54 1094.74V1089.16H195.96V1072.3H190.318V1066.1H195.96V1054.88H202.16V1066.1H219.148V1072.3H202.16V1088.54H218.528V1082.9H224.79V1089.16H219.148V1094.74H201.54ZM251.571 1094.74V1089.16H245.929V1071.74H251.571V1066.1H269.055V1071.74H274.759V1077.88H268.435V1072.3H252.191V1077.26H263.475V1083.52H252.191V1088.54H268.435V1082.84H274.759V1089.1H269.055V1094.74H251.571ZM288.52 1094.74V1089.16H282.878V1071.74H288.52V1066.1H306.004V1071.74H311.708V1088.54H317.35V1094.74H311.088V1089.16H306.004V1094.74H288.52ZM289.14 1088.54H305.384V1072.3H289.14V1088.54ZM322.974 1094.74V1088.54H328.616V1082.9H334.196V1077.88H328.616V1072.3H322.974V1066.1H329.236V1071.74H334.816V1077.26H339.9V1071.74H345.48V1066.1H351.804V1072.3H346.1V1077.88H340.52V1082.9H346.1V1088.54H351.804V1094.74H345.48V1089.16H339.9V1083.52H334.816V1089.16H329.236V1094.74H322.974ZM362.712 1099.58V1096.11H365.564V1094H359.922V1087.74H366.184V1093.38H368.974V1096.73H366.184V1099.58H362.712ZM395.746 1094.74V1089.16H390.104V1071.74H395.746V1066.1H413.23V1071.74H418.934V1077.88H412.61V1072.3H396.366V1077.26H407.65V1083.52H396.366V1088.54H412.61V1082.84H418.934V1089.1H413.23V1094.74H395.746ZM432.694 1094.74V1089.16H427.052V1071.74H432.694V1066.1H450.178V1071.74H455.882V1088.54H461.524V1094.74H455.262V1089.16H450.178V1094.74H432.694ZM433.314 1088.54H449.558V1072.3H433.314V1088.54ZM467.148 1094.74V1088.54H472.79V1082.9H478.37V1077.88H472.79V1072.3H467.148V1066.1H473.41V1071.74H478.99V1077.26H484.074V1071.74H489.654V1066.1H495.978V1072.3H490.274V1077.88H484.694V1082.9H490.274V1088.54H495.978V1094.74H489.654V1089.16H484.074V1083.52H478.99V1089.16H473.41V1094.74H467.148ZM81.362 1168.81V1163.16H75.72V1156.9H81.982V1162.54H92.646V1140.1H98.908V1163.16H93.266V1168.81H81.362ZM107.037 1168.74V1162.54H112.679V1156.9H118.259V1151.26H123.963V1146.3H107.037V1140.1H135.867V1146.3H130.163V1151.88H124.583V1157.52H118.879V1162.54H135.867V1168.74H107.037ZM157.018 1168V1161.74H163.28V1168H157.018ZM177.024 1168.74V1163.16H171.382V1128.88H177.644V1162.54H193.888V1156.9H200.212V1163.16H194.508V1168.74H177.024ZM208.33 1168V1161.74H228.294V1168H208.33ZM242.02 1168.74V1163.16H236.378V1145.74H242.02V1140.1H259.504V1145.74H265.208V1151.88H258.884V1146.3H242.64V1151.26H253.924V1157.52H242.64V1162.54H258.884V1156.84H265.208V1163.1H259.504V1168.74H242.02ZM273.326 1168.74V1162.54H278.968V1156.9H284.548V1151.88H278.968V1146.3H273.326V1140.1H279.588V1145.74H285.168V1151.26H290.252V1145.74H295.832V1140.1H302.156V1146.3H296.452V1151.88H290.872V1156.9H296.452V1162.54H302.156V1168.74H295.832V1163.16H290.252V1157.52H285.168V1163.16H279.588V1168.74H273.326ZM310.274 1168.74V1140.1H316.536V1168.74H310.274ZM310.274 1135.14V1128.88H316.536V1135.14H310.274ZM333.983 1168.74V1163.16H328.403V1146.3H322.761V1140.1H328.403V1128.88H334.603V1140.1H351.591V1146.3H334.603V1162.54H350.971V1156.9H357.233V1163.16H351.591V1168.74H333.983ZM365.34 1168V1161.74H385.304V1168H365.34ZM393.388 1168.74V1128.88H399.65V1145.74H404.61V1140.1H416.514V1145.74H422.218V1168.74H415.894V1146.3H405.23V1151.88H399.65V1168.74H393.388ZM434.767 1168.74V1163.16H429.125V1145.74H434.767V1140.1H452.251V1145.74H457.955V1162.54H463.597V1168.74H457.335V1163.16H452.251V1168.74H434.767ZM435.387 1162.54H451.631V1146.3H435.387V1162.54ZM469.827 1168.74V1140.1H492.953V1145.74H498.657V1168.74H492.333V1146.3H476.089V1168.74H469.827ZM511.206 1168.74V1163.16H505.564V1145.74H511.206V1140.1H528.132V1128.88H534.394V1163.16H528.69V1168.74H511.206ZM511.826 1162.54H528.07V1146.3H511.826V1162.54ZM541.301 1168.74V1128.88H547.563V1168.74H541.301ZM560.096 1168.74V1163.16H554.454V1145.74H560.096V1140.1H577.58V1145.74H583.284V1151.88H576.96V1146.3H560.716V1151.26H572V1157.52H560.716V1162.54H576.96V1156.84H583.284V1163.1H577.58V1168.74H560.096ZM591.403 1168.74V1145.74H597.045V1140.1H614.529V1145.74H620.233V1151.88H613.909V1146.3H597.665V1168.74H591.403Z" fill="black"/>
<g filter="url(#filter0_d_603_9)">
<mask id="path-4-inside-1_603_9" fill="white">
<path d="M495.133 438.661C502.064 426.665 519.38 426.668 526.307 438.665L560.983 498.724C564.199 504.295 564.198 511.159 560.98 516.729L526.254 576.831C519.324 588.826 502.007 588.823 495.08 576.826L460.406 516.767C457.189 511.196 457.19 504.331 460.409 498.761L495.133 438.661Z"/>
</mask>
<path d="M495.133 438.661C502.064 426.665 519.38 426.668 526.307 438.665L560.983 498.724C564.199 504.295 564.198 511.159 560.98 516.729L526.254 576.831C519.324 588.826 502.007 588.823 495.08 576.826L460.406 516.767C457.189 511.196 457.19 504.331 460.409 498.761L495.133 438.661Z" fill="url(#paint1_linear_603_9)"/>
<path d="M495.133 438.661L488.206 434.658L488.206 434.658L495.133 438.661ZM526.307 438.665L533.235 434.665V434.665L526.307 438.665ZM560.983 498.724L567.911 494.724L567.911 494.724L560.983 498.724ZM560.98 516.729L567.907 520.731L567.907 520.731L560.98 516.729ZM526.254 576.831L533.181 580.833L533.181 580.833L526.254 576.831ZM495.08 576.826L488.152 580.826L488.152 580.826L495.08 576.826ZM460.406 516.767L467.334 512.767H467.334L460.406 516.767ZM460.409 498.761L467.336 502.763L467.336 502.763L460.409 498.761ZM495.133 438.661L502.06 442.663C505.91 435.999 515.531 436 519.379 442.666L526.307 438.665L533.235 434.665C523.23 417.336 498.217 417.331 488.206 434.658L495.133 438.661ZM526.307 438.665L519.379 442.666L554.055 502.724L560.983 498.724L567.911 494.724L533.235 434.665L526.307 438.665ZM560.983 498.724L554.055 502.724C555.841 505.819 555.841 509.632 554.053 512.727L560.98 516.729L567.907 520.731C572.555 512.686 572.557 502.771 567.911 494.724L560.983 498.724ZM560.98 516.729L554.053 512.727L519.327 572.828L526.254 576.831L533.181 580.833L567.907 520.731L560.98 516.729ZM526.254 576.831L519.327 572.828C515.477 579.493 505.857 579.491 502.009 572.826L495.08 576.826L488.152 580.826C498.158 598.156 523.17 598.159 533.181 580.833L526.254 576.831ZM495.08 576.826L502.009 572.826L467.334 512.767L460.406 516.767L453.477 520.767L488.152 580.826L495.08 576.826ZM460.406 516.767L467.334 512.767C465.547 509.672 465.548 505.858 467.336 502.763L460.409 498.761L453.482 494.759C448.833 502.804 448.831 512.72 453.477 520.767L460.406 516.767ZM460.409 498.761L467.336 502.763L502.06 442.663L495.133 438.661L488.206 434.658L453.482 494.759L460.409 498.761Z" fill="black" mask="url(#path-4-inside-1_603_9)"/>
</g>
<g filter="url(#filter1_ddddd_603_9)">
<path d="M933 530.606L848.817 614.79L848.816 614.788L764.633 698.972L680.45 614.789L764.632 530.605L680.45 446.422L764.633 362.239L933 530.606Z" fill="url(#paint2_linear_603_9)"/>
<path d="M927.343 530.605L849.912 608.036V608.035L764.633 693.314L686.105 614.788L767.461 533.434L770.289 530.605L767.461 527.776L686.106 446.422L764.633 367.896L927.343 530.605Z" stroke="#CE1C1E" stroke-width="8"/>
</g>
<g filter="url(#filter2_ddddd_603_9)">
<path d="M512.303 443.932L596.388 359.847L680.572 444.031L680.458 444.144L680.669 444.354L596.486 528.538L680.571 612.625L596.388 696.807L513.155 613.576L512.209 614.522L511.258 613.571L428.022 696.807L343.839 612.625L428.023 528.441L343.937 444.354L344.147 444.143L343.937 443.932L428.12 359.749L512.303 443.932Z" fill="url(#paint3_linear_603_9)"/>
<path d="M512.303 449.589L596.388 365.504L674.901 444.018L674.788 444.131L675.011 444.354L593.657 525.71L590.829 528.538L593.657 531.366L674.913 612.624L596.387 691.151L513.153 607.917L512.207 608.863L511.258 607.914L508.43 610.742L428.021 691.15L349.495 612.624L430.852 531.269L433.68 528.441L430.852 525.613L349.587 444.347L349.797 444.136L349.593 443.932L428.119 365.405L512.303 449.589Z" stroke="#1D0000" stroke-width="8"/>
</g>
<g filter="url(#filter3_ddddd_603_9)">
<path d="M343.933 446.447L259.75 530.628L343.933 614.812L259.75 698.996L146.698 585.944L146.699 585.943L91.3867 530.631L129.175 492.842L129.173 492.841L259.75 362.264L343.933 446.447Z" fill="url(#paint4_linear_603_9)"/>
<path d="M338.275 446.446L256.922 527.8L254.094 530.629L256.922 533.457L338.276 614.813L259.75 693.339L152.354 585.943L152.355 585.942L97.043 530.63L134.831 492.842L134.83 492.841L259.75 367.92L338.275 446.446Z" stroke="#CE1C1E" stroke-width="8"/>
</g>
</g>
<rect x="55" y="55" width="913.6" height="913.6" rx="266" stroke="#222222" stroke-width="8"/>
<defs>
<filter id="filter0_d_603_9" x="442.094" y="425.766" width="137.2" height="187.96" filterUnits="userSpaceOnUse" color-interpolation-filters="sRGB">
<feFlood flood-opacity="0" result="BackgroundImageFix"/>
<feColorMatrix in="SourceAlpha" type="matrix" values="0 0 0 0 0 0 0 0 0 0 0 0 0 0 0 0 0 0 127 0" result="hardAlpha"/>
<feOffset dy="12"/>
<feGaussianBlur stdDeviation="7.95"/>
<feComposite in2="hardAlpha" operator="out"/>
<feColorMatrix type="matrix" values="0 0 0 0 0 0 0 0 0 0 0 0 0 0 0 0 0 0 0.25 0"/>
<feBlend mode="normal" in2="BackgroundImageFix" result="effect1_dropShadow_603_9"/>
<feBlend mode="normal" in="SourceGraphic" in2="effect1_dropShadow_603_9" result="shape"/>
</filter>
<filter id="filter1_ddddd_603_9" x="660.45" y="353.239" width="377.55" height="569.733" filterUnits="userSpaceOnUse" color-interpolation-filters="sRGB">
<feFlood flood-opacity="0" result="BackgroundImageFix"/>
<feColorMatrix in="SourceAlpha" type="matrix" values="0 0 0 0 0 0 0 0 0 0 0 0 0 0 0 0 0 0 127 0" result="hardAlpha"/>
<feOffset dx="2" dy="7"/>
<feGaussianBlur stdDeviation="8"/>
<feColorMatrix type="matrix" values="0 0 0 0 0.137255 0 0 0 0 0.00392157 0 0 0 0 0.00392157 0 0 0 0.98 0"/>
<feBlend mode="normal" in2="BackgroundImageFix" result="effect1_dropShadow_603_9"/>
<feColorMatrix in="SourceAlpha" type="matrix" values="0 0 0 0 0 0 0 0 0 0 0 0 0 0 0 0 0 0 127 0" result="hardAlpha"/>
<feOffset dx="9" dy="28"/>
<feGaussianBlur stdDeviation="14.5"/>
<feColorMatrix type="matrix" values="0 0 0 0 0.137255 0 0 0 0 0.00392157 0 0 0 0 0.00392157 0 0 0 0.85 0"/>
<feBlend mode="normal" in2="effect1_dropShadow_603_9" result="effect2_dropShadow_603_9"/>
<feColorMatrix in="SourceAlpha" type="matrix" values="0 0 0 0 0 0 0 0 0 0 0 0 0 0 0 0 0 0 127 0" result="hardAlpha"/>
<feOffset dx="20" dy="62"/>
<feGaussianBlur stdDeviation="19.5"/>
<feColorMatrix type="matrix" values="0 0 0 0 0.137255 0 0 0 0 0.00392157 0 0 0 0 0.00392157 0 0 0 0.5 0"/>
<feBlend mode="normal" in2="effect2_dropShadow_603_9" result="effect3_dropShadow_603_9"/>
<feColorMatrix in="SourceAlpha" type="matrix" values="0 0 0 0 0 0 0 0 0 0 0 0 0 0 0 0 0 0 127 0" result="hardAlpha"/>
<feOffset dx="35" dy="111"/>
<feGaussianBlur stdDeviation="23"/>
<feColorMatrix type="matrix" values="0 0 0 0 0.137255 0 0 0 0 0.00392157 0 0 0 0 0.00392157 0 0 0 0.15 0"/>
<feBlend mode="normal" in2="effect3_dropShadow_603_9" result="effect4_dropShadow_603_9"/>
<feColorMatrix in="SourceAlpha" type="matrix" values="0 0 0 0 0 0 0 0 0 0 0 0 0 0 0 0 0 0 127 0" result="hardAlpha"/>
<feOffset dx="54" dy="173"/>
<feGaussianBlur stdDeviation="25.5"/>
<feColorMatrix type="matrix" values="0 0 0 0 0.137255 0 0 0 0 0.00392157 0 0 0 0 0.00392157 0 0 0 0.02 0"/>
<feBlend mode="normal" in2="effect4_dropShadow_603_9" result="effect5_dropShadow_603_9"/>
<feBlend mode="normal" in="SourceGraphic" in2="effect5_dropShadow_603_9" result="shape"/>
</filter>
<filter id="filter2_ddddd_603_9" x="323.839" y="350.749" width="461.83" height="570.058" filterUnits="userSpaceOnUse" color-interpolation-filters="sRGB">
<feFlood flood-opacity="0" result="BackgroundImageFix"/>
<feColorMatrix in="SourceAlpha" type="matrix" values="0 0 0 0 0 0 0 0 0 0 0 0 0 0 0 0 0 0 127 0" result="hardAlpha"/>
<feOffset dx="2" dy="7"/>
<feGaussianBlur stdDeviation="8"/>
<feColorMatrix type="matrix" values="0 0 0 0 0.137255 0 0 0 0 0.00392157 0 0 0 0 0.00392157 0 0 0 0.98 0"/>
<feBlend mode="normal" in2="BackgroundImageFix" result="effect1_dropShadow_603_9"/>
<feColorMatrix in="SourceAlpha" type="matrix" values="0 0 0 0 0 0 0 0 0 0 0 0 0 0 0 0 0 0 127 0" result="hardAlpha"/>
<feOffset dx="9" dy="28"/>
<feGaussianBlur stdDeviation="14.5"/>
<feColorMatrix type="matrix" values="0 0 0 0 0.137255 0 0 0 0 0.00392157 0 0 0 0 0.00392157 0 0 0 0.85 0"/>
<feBlend mode="normal" in2="effect1_dropShadow_603_9" result="effect2_dropShadow_603_9"/>
<feColorMatrix in="SourceAlpha" type="matrix" values="0 0 0 0 0 0 0 0 0 0 0 0 0 0 0 0 0 0 127 0" result="hardAlpha"/>
<feOffset dx="20" dy="62"/>
<feGaussianBlur stdDeviation="19.5"/>
<feColorMatrix type="matrix" values="0 0 0 0 0.137255 0 0 0 0 0.00392157 0 0 0 0 0.00392157 0 0 0 0.5 0"/>
<feBlend mode="normal" in2="effect2_dropShadow_603_9" result="effect3_dropShadow_603_9"/>
<feColorMatrix in="SourceAlpha" type="matrix" values="0 0 0 0 0 0 0 0 0 0 0 0 0 0 0 0 0 0 127 0" result="hardAlpha"/>
<feOffset dx="35" dy="111"/>
<feGaussianBlur stdDeviation="23"/>
<feColorMatrix type="matrix" values="0 0 0 0 0.137255 0 0 0 0 0.00392157 0 0 0 0 0.00392157 0 0 0 0.15 0"/>
<feBlend mode="normal" in2="effect3_dropShadow_603_9" result="effect4_dropShadow_603_9"/>
<feColorMatrix in="SourceAlpha" type="matrix" values="0 0 0 0 0 0 0 0 0 0 0 0 0 0 0 0 0 0 127 0" result="hardAlpha"/>
<feOffset dx="54" dy="173"/>
<feGaussianBlur stdDeviation="25.5"/>
<feColorMatrix type="matrix" values="0 0 0 0 0.137255 0 0 0 0 0.00392157 0 0 0 0 0.00392157 0 0 0 0.02 0"/>
<feBlend mode="normal" in2="effect4_dropShadow_603_9" result="effect5_dropShadow_603_9"/>
<feBlend mode="normal" in="SourceGraphic" in2="effect5_dropShadow_603_9" result="shape"/>
</filter>
<filter id="filter3_ddddd_603_9" x="71.3867" y="353.264" width="377.547" height="569.733" filterUnits="userSpaceOnUse" color-interpolation-filters="sRGB">
<feFlood flood-opacity="0" result="BackgroundImageFix"/>
<feColorMatrix in="SourceAlpha" type="matrix" values="0 0 0 0 0 0 0 0 0 0 0 0 0 0 0 0 0 0 127 0" result="hardAlpha"/>
<feOffset dx="2" dy="7"/>
<feGaussianBlur stdDeviation="8"/>
<feColorMatrix type="matrix" values="0 0 0 0 0.137255 0 0 0 0 0.00392157 0 0 0 0 0.00392157 0 0 0 0.98 0"/>
<feBlend mode="normal" in2="BackgroundImageFix" result="effect1_dropShadow_603_9"/>
<feColorMatrix in="SourceAlpha" type="matrix" values="0 0 0 0 0 0 0 0 0 0 0 0 0 0 0 0 0 0 127 0" result="hardAlpha"/>
<feOffset dx="9" dy="28"/>
<feGaussianBlur stdDeviation="14.5"/>
<feColorMatrix type="matrix" values="0 0 0 0 0.137255 0 0 0 0 0.00392157 0 0 0 0 0.00392157 0 0 0 0.85 0"/>
<feBlend mode="normal" in2="effect1_dropShadow_603_9" result="effect2_dropShadow_603_9"/>
<feColorMatrix in="SourceAlpha" type="matrix" values="0 0 0 0 0 0 0 0 0 0 0 0 0 0 0 0 0 0 127 0" result="hardAlpha"/>
<feOffset dx="20" dy="62"/>
<feGaussianBlur stdDeviation="19.5"/>
<feColorMatrix type="matrix" values="0 0 0 0 0.137255 0 0 0 0 0.00392157 0 0 0 0 0.00392157 0 0 0 0.5 0"/>
<feBlend mode="normal" in2="effect2_dropShadow_603_9" result="effect3_dropShadow_603_9"/>
<feColorMatrix in="SourceAlpha" type="matrix" values="0 0 0 0 0 0 0 0 0 0 0 0 0 0 0 0 0 0 127 0" result="hardAlpha"/>
<feOffset dx="35" dy="111"/>
<feGaussianBlur stdDeviation="23"/>
<feColorMatrix type="matrix" values="0 0 0 0 0.137255 0 0 0 0 0.00392157 0 0 0 0 0.00392157 0 0 0 0.15 0"/>
<feBlend mode="normal" in2="effect3_dropShadow_603_9" result="effect4_dropShadow_603_9"/>
<feColorMatrix in="SourceAlpha" type="matrix" values="0 0 0 0 0 0 0 0 0 0 0 0 0 0 0 0 0 0 127 0" result="hardAlpha"/>
<feOffset dx="54" dy="173"/>
<feGaussianBlur stdDeviation="25.5"/>
<feColorMatrix type="matrix" values="0 0 0 0 0.137255 0 0 0 0 0.00392157 0 0 0 0 0.00392157 0 0 0 0.02 0"/>
<feBlend mode="normal" in2="effect4_dropShadow_603_9" result="effect5_dropShadow_603_9"/>
<feBlend mode="normal" in="SourceGraphic" in2="effect5_dropShadow_603_9" result="shape"/>
</filter>
<linearGradient id="paint0_linear_603_9" x1="511.599" y1="259.379" x2="50.6151" y2="-270.716" gradientUnits="userSpaceOnUse">
<stop stop-color="#211D1D"/>
<stop offset="1" stop-color="#877777"/>
</linearGradient>
<linearGradient id="paint1_linear_603_9" x1="510.671" y1="464.974" x2="474.817" y2="445.744" gradientUnits="userSpaceOnUse">
<stop stop-color="#211D1D"/>
<stop offset="1" stop-color="#877777"/>
</linearGradient>
<linearGradient id="paint2_linear_603_9" x1="767.085" y1="394.993" x2="910.112" y2="644.385" gradientUnits="userSpaceOnUse">
<stop stop-color="#FF5C5C"/>
<stop offset="1" stop-color="#FD3220"/>
</linearGradient>
<linearGradient id="paint3_linear_603_9" x1="707.453" y1="720.032" x2="365.747" y2="356.268" gradientUnits="userSpaceOnUse">
<stop stop-color="#E4CDC1"/>
<stop offset="1" stop-color="white"/>
</linearGradient>
<linearGradient id="paint4_linear_603_9" x1="178.02" y1="395.018" x2="321.048" y2="644.408" gradientUnits="userSpaceOnUse">
<stop stop-color="#FF5C5C"/>
<stop offset="1" stop-color="#FD3220"/>
</linearGradient>
<clipPath id="clip0_603_9">
<rect x="51" y="51" width="921.6" height="921.6" rx="270" fill="white"/>
</clipPath>
</defs>
</svg>
