<svg width="874" height="372" viewBox="0 0 874 372" fill="none" xmlns="http://www.w3.org/2000/svg">
<g filter="url(#filter0_d_603_62)">
<path d="M857.514 174.757L773.331 258.941L773.33 258.939L689.147 343.123L604.964 258.94L689.146 174.756L604.964 90.5731L689.147 6.39014L857.514 174.757Z" fill="url(#paint0_linear_603_62)"/>
<path d="M851.856 174.756L774.426 252.187V252.186L689.146 337.465L610.619 258.939L691.975 177.584L694.803 174.756L691.975 171.927L610.62 90.5728L689.146 12.0464L851.856 174.756Z" stroke="#CE1C1E" stroke-width="8"/>
</g>
<g filter="url(#filter1_d_603_62)">
<path d="M436.816 88.083L520.901 3.99797L605.085 88.182L604.972 88.2946L605.182 88.5053L520.999 172.689L605.084 256.775L520.901 340.958L437.668 257.726L436.723 258.673L435.772 257.722L352.535 340.958L268.353 256.775L352.537 172.591L268.45 88.5053L268.661 88.2936L268.45 88.083L352.633 3.90002L436.816 88.083Z" fill="url(#paint1_linear_603_62)"/>
<path d="M436.816 93.7399L520.901 9.65491L599.415 88.1686L599.302 88.2819L599.524 88.5045L518.171 169.861L515.343 172.689L518.171 175.517L599.427 256.775L520.9 335.301L437.667 252.068L436.721 253.014L435.771 252.065L432.943 254.893L352.535 335.3L274.009 256.775L355.365 175.42L358.193 172.591L355.365 169.763L274.101 88.4977L274.311 88.2867L274.106 88.0826L352.633 9.55627L436.816 93.7399Z" stroke="#1D0000" stroke-width="8"/>
</g>
<g filter="url(#filter2_d_603_62)">
<path d="M268.447 90.5975L184.264 174.779L268.447 258.963L184.264 343.147L71.2114 230.095L71.2125 230.094L15.9004 174.781L53.6882 136.993L53.6871 136.992L184.264 6.41455L268.447 90.5975Z" fill="url(#paint2_linear_603_62)"/>
<path d="M262.789 90.5972L181.436 171.951L178.607 174.78L181.436 177.608L262.79 258.963L184.264 337.49L76.8682 230.094L76.8691 230.093L21.5566 174.781L59.3447 136.993L59.3437 136.992L184.264 12.0708L262.789 90.5972Z" stroke="#CE1C1E" stroke-width="8"/>
</g>
<defs>
<filter id="filter0_d_603_62" x="589.064" y="2.49014" width="284.35" height="368.533" filterUnits="userSpaceOnUse" color-interpolation-filters="sRGB">
<feFlood flood-opacity="0" result="BackgroundImageFix"/>
<feColorMatrix in="SourceAlpha" type="matrix" values="0 0 0 0 0 0 0 0 0 0 0 0 0 0 0 0 0 0 127 0" result="hardAlpha"/>
<feOffset dy="12"/>
<feGaussianBlur stdDeviation="7.95"/>
<feComposite in2="hardAlpha" operator="out"/>
<feColorMatrix type="matrix" values="0 0 0 0 0 0 0 0 0 0 0 0 0 0 0 0 0 0 0.25 0"/>
<feBlend mode="normal" in2="BackgroundImageFix" result="effect1_dropShadow_603_62"/>
<feBlend mode="normal" in="SourceGraphic" in2="effect1_dropShadow_603_62" result="shape"/>
</filter>
<filter id="filter1_d_603_62" x="252.453" y="2.47955e-05" width="368.63" height="368.858" filterUnits="userSpaceOnUse" color-interpolation-filters="sRGB">
<feFlood flood-opacity="0" result="BackgroundImageFix"/>
<feColorMatrix in="SourceAlpha" type="matrix" values="0 0 0 0 0 0 0 0 0 0 0 0 0 0 0 0 0 0 127 0" result="hardAlpha"/>
<feOffset dy="12"/>
<feGaussianBlur stdDeviation="7.95"/>
<feComposite in2="hardAlpha" operator="out"/>
<feColorMatrix type="matrix" values="0 0 0 0 0 0 0 0 0 0 0 0 0 0 0 0 0 0 0.25 0"/>
<feBlend mode="normal" in2="BackgroundImageFix" result="effect1_dropShadow_603_62"/>
<feBlend mode="normal" in="SourceGraphic" in2="effect1_dropShadow_603_62" result="shape"/>
</filter>
<filter id="filter2_d_603_62" x="0.000391006" y="2.51455" width="284.347" height="368.533" filterUnits="userSpaceOnUse" color-interpolation-filters="sRGB">
<feFlood flood-opacity="0" result="BackgroundImageFix"/>
<feColorMatrix in="SourceAlpha" type="matrix" values="0 0 0 0 0 0 0 0 0 0 0 0 0 0 0 0 0 0 127 0" result="hardAlpha"/>
<feOffset dy="12"/>
<feGaussianBlur stdDeviation="7.95"/>
<feComposite in2="hardAlpha" operator="out"/>
<feColorMatrix type="matrix" values="0 0 0 0 0 0 0 0 0 0 0 0 0 0 0 0 0 0 0.25 0"/>
<feBlend mode="normal" in2="BackgroundImageFix" result="effect1_dropShadow_603_62"/>
<feBlend mode="normal" in="SourceGraphic" in2="effect1_dropShadow_603_62" result="shape"/>
</filter>
<linearGradient id="paint0_linear_603_62" x1="691.598" y1="39.1442" x2="834.625" y2="288.536" gradientUnits="userSpaceOnUse">
<stop stop-color="#FF5C5C"/>
<stop offset="1" stop-color="#FD3220"/>
</linearGradient>
<linearGradient id="paint1_linear_603_62" x1="436.694" y1="80.1107" x2="346.211" y2="8.25923" gradientUnits="userSpaceOnUse">
<stop stop-color="#211D1D"/>
<stop offset="1" stop-color="#877777"/>
</linearGradient>
<linearGradient id="paint2_linear_603_62" x1="102.534" y1="39.1686" x2="245.562" y2="288.559" gradientUnits="userSpaceOnUse">
<stop stop-color="#FF5C5C"/>
<stop offset="1" stop-color="#FD3220"/>
</linearGradient>
</defs>
</svg>
